<svg xmlns="http://www.w3.org/2000/svg" width="10" height="10" viewBox="0 0 10 10">
    <path fill="#0077c8" d="M4159.286 1053.509a1.875 1.875 0 0 1-1.875 1.875h-6.25a1.877 1.877 0 0 1-1.876-1.875v-6.251a1.876 1.876 0 0 1 1.876-1.874h6.25a1.874 1.874 0 0 1 1.875 1.874zm-1.543-4.5a.411.411 0 0 0 0-.585l-.663-.664a.412.412 0 0 0-.585 0l-3.042 3.041-1.373-1.374a.412.412 0 0 0-.585 0l-.666.664a.414.414 0 0 0 0 .586l2.333 2.331a.412.412 0 0 0 .585 0z" transform="translate(-4149.286 -1045.384)"/>
</svg>
