<svg xmlns="http://www.w3.org/2000/svg" width="10" height="10" viewBox="0 0 10 10">
    <g fill="none" stroke-miterlimit="10">
        <path d="M4159.285 1162.652a1.875 1.875 0 0 1-1.875 1.875h-6.25a1.877 1.877 0 0 1-1.876-1.875v-6.25a1.876 1.876 0 0 1 1.876-1.874h6.25a1.874 1.874 0 0 1 1.875 1.874z" transform="translate(-4149.285 -1154.527)"/>
        <path fill="#658cad" d="M4157.41 1163.527c.483 0 .875-.393.875-.875v-6.25c0-.483-.392-.875-.874-.875h-6.25c-.483 0-.876.392-.876.874v6.25c0 .483.393.876.876.876h6.25m0 1h-6.25c-1.035 0-1.876-.84-1.876-1.875v-6.25c0-1.036.841-1.875 1.876-1.875h6.25c1.035 0 1.874.84 1.874 1.874v6.25c0 1.036-.839 1.876-1.874 1.876z" transform="translate(-4149.285 -1154.527)"/>
    </g>
</svg>
